<svg xmlns="http://www.w3.org/2000/svg" width="171" height="28"><path fill-rule="evenodd" fill="#FFF" d="M67.098 27.701H43.857v-4.623L59.204 5.376H44.335V.042h22.763v4.623L51.75 22.367h15.348v5.334zM30.782.042h6.139v27.659h-6.139V.042zM14.201 27.701H.926V.042h12.956c3.189 0 5.701.869 7.295 2.45 1.276 1.264 1.914 2.805 1.914 4.702v.079c0 3.121-1.675 4.86-3.668 5.966 3.229 1.225 5.222 3.082 5.222 6.796v.079c0 5.058-4.145 7.587-10.444 7.587zm2.79-19.48c0-1.818-1.435-2.845-4.026-2.845H6.906v5.848h5.66c2.711 0 4.425-.869 4.425-2.924v-.079zm1.555 11.064c0-1.858-1.395-3.003-4.544-3.003H6.906v6.085h7.295c2.711 0 4.345-.949 4.345-3.003v-.079z"/><path fill-rule="evenodd" fill="#4AC8ED" d="M166 19a5 5 0 1 1 .001-10.001A5 5 0 0 1 166 19zm-14.074 8.701l-6.259-9.483-6.298 9.483h-6.977l9.727-14.067L132.791.042h7.176l5.82 8.969 5.94-8.969h6.976l-9.328 13.513 9.727 14.146h-7.176zM107.001.042h21.048v5.413H113.1v5.611h13.155v5.413H113.1v5.809h15.148v5.413h-21.247V.042zM80.772 10.118v17.583h-6.059V.042h5.661l13.075 17.03V.042h6.06v27.659h-5.223L80.772 10.118z"/></svg>